<svg xmlns="http://www.w3.org/2000/svg" width="1200" height="720" viewBox="0 0 1200 720">
  <rect width="100%" height="100%" fill="#ffffff"/>
  <text x="600" y="34" text-anchor="middle" font-family="Arial" font-size="22" font-weight="700" fill="#20232a">Outliers Before Cleaning</text>
  <line x1="117.5" y1="540" x2="117.5" y2="90" stroke="#555"/>
    <rect x="80" y="515.2672642438692" width="75" height="18.294938291304334" fill="#8ecae6" stroke="#2563eb"/>
    <line x1="80" y1="526.0062469428758" x2="155" y2="526.0062469428758" stroke="#111" stroke-width="2"/>
    <line x1="92" y1="540" x2="143" y2="540" stroke="#555"/>
    <line x1="92" y1="90" x2="143" y2="90" stroke="#555"/>
    <text x="117.5" y="570" text-anchor="middle" font-family="Arial" font-size="13" fill="#333">Price</text>
<line x1="282.5" y1="540" x2="282.5" y2="90" stroke="#555"/>
    <rect x="245" y="143.99999999999994" width="75" height="72.00000000000006" fill="#8ecae6" stroke="#2563eb"/>
    <line x1="245" y1="180" x2="320" y2="180" stroke="#111" stroke-width="2"/>
    <line x1="257" y1="540" x2="308" y2="540" stroke="#555"/>
    <line x1="257" y1="90" x2="308" y2="90" stroke="#555"/>
    <text x="282.5" y="570" text-anchor="middle" font-family="Arial" font-size="13" fill="#333">Rating</text>
<line x1="447.5" y1="540" x2="447.5" y2="90" stroke="#555"/>
    <rect x="410" y="494.0948275862069" width="75" height="29.849137931034477" fill="#8ecae6" stroke="#2563eb"/>
    <line x1="410" y1="511.76724137931035" x2="485" y2="511.76724137931035" stroke="#111" stroke-width="2"/>
    <line x1="422" y1="540" x2="473" y2="540" stroke="#555"/>
    <line x1="422" y1="90" x2="473" y2="90" stroke="#555"/>
    <text x="447.5" y="570" text-anchor="middle" font-family="Arial" font-size="13" fill="#333">NumberOfReviews</text>
<line x1="612.5" y1="540" x2="612.5" y2="90" stroke="#555"/>
    <rect x="575" y="328.0524861878453" width="75" height="114.98618784530385" fill="#8ecae6" stroke="#2563eb"/>
    <line x1="575" y1="383.37016574585635" x2="650" y2="383.37016574585635" stroke="#111" stroke-width="2"/>
    <line x1="587" y1="540" x2="638" y2="540" stroke="#555"/>
    <line x1="587" y1="90" x2="638" y2="90" stroke="#555"/>
    <text x="612.5" y="570" text-anchor="middle" font-family="Arial" font-size="13" fill="#333">StockQuantity</text>
<line x1="777.5" y1="540" x2="777.5" y2="90" stroke="#555"/>
    <rect x="740" y="361.55172413793105" width="75" height="124.13793103448273" fill="#8ecae6" stroke="#2563eb"/>
    <line x1="740" y1="423.62068965517244" x2="815" y2="423.62068965517244" stroke="#111" stroke-width="2"/>
    <line x1="752" y1="540" x2="803" y2="540" stroke="#555"/>
    <line x1="752" y1="90" x2="803" y2="90" stroke="#555"/>
    <text x="777.5" y="570" text-anchor="middle" font-family="Arial" font-size="13" fill="#333">DiscountPercentage</text>
<line x1="942.5" y1="540" x2="942.5" y2="90" stroke="#555"/>
    <rect x="905" y="240" width="75" height="150" fill="#8ecae6" stroke="#2563eb"/>
    <line x1="905" y1="390" x2="980" y2="390" stroke="#111" stroke-width="2"/>
    <line x1="917" y1="540" x2="968" y2="540" stroke="#555"/>
    <line x1="917" y1="90" x2="968" y2="90" stroke="#555"/>
    <text x="942.5" y="570" text-anchor="middle" font-family="Arial" font-size="13" fill="#333">WarrantyMonths</text>
<line x1="1107.5" y1="540" x2="1107.5" y2="90" stroke="#555"/>
    <rect x="1070" y="507.93331076506433" width="75" height="12.186865267433973" fill="#8ecae6" stroke="#2563eb"/>
    <line x1="1070" y1="514.1029113067028" x2="1145" y2="514.1029113067028" stroke="#111" stroke-width="2"/>
    <line x1="1082" y1="540" x2="1133" y2="540" stroke="#555"/>
    <line x1="1082" y1="90" x2="1133" y2="90" stroke="#555"/>
    <text x="1107.5" y="570" text-anchor="middle" font-family="Arial" font-size="13" fill="#333">SoldUnits</text>
</svg>